<?xml version="1.0" encoding="UTF-8"?>
<svg id="Layer_2" data-name="Layer 2" xmlns="http://www.w3.org/2000/svg" viewBox="0 0 351.08 84.19">
  <defs>
    <style>
      .cls-1 {
        font-family: TrebuchetMS-Bold, 'Trebuchet MS';
        font-size: 28px;
        font-weight: 700;
      }

      .cls-1, .cls-2 {
        fill: #4366b0;
      }

      .cls-3 {
        fill: #263d88;
      }
    </style>
  </defs>
  <g id="Layer_1-2" data-name="Layer 1">
    <g>
      <path class="cls-3" d="M16.14,2.31c25.61-2.83,28.28,33.37,5.81,35.73C-5.55,40.93-6.89,4.86,16.14,2.31ZM9.98,28.97c4.78,5.04,14.02,4.7,18.22-.92,7.74-10.33-3.16-24.62-15.25-18.67-6.95,3.42-8.19,14.09-2.98,19.58Z"/>
      <path class="cls-3" d="M49.57,33.82v12.82h-6.41V11.81c0-.83,6.18-.88,6.41-.64.32.32-.59,3.56.42,3.85.89-2.5,4.56-4.07,7.04-4.29,19.29-1.72,18.98,30.06-.8,27.33-2.8-.39-4.85-2.31-6.66-4.24ZM62.67,18.16c-4.07-4.09-11.7-2.24-12.9,3.67-2.87,14.07,16.39,14.77,15.22,1.5-.15-1.74-1.1-3.94-2.31-5.16Z"/>
      <path class="cls-2" d="M136.76,11.17v15.6c0,.57.94,3.18,1.35,3.78,2.71,3.93,10.29,1.75,11.02-2.95.41-2.69-.54-14.95.21-16.03.61-.87,4.96-.19,6.22-.4v26.5h-5.98c-.19,0,.14-3.37,0-3.85-1.9,2.09-4.12,3.94-7.05,4.27-15.86,1.81-11.67-16.21-12.12-26.23.45-1.36,5.05-.44,6.35-.7Z"/>
      <path class="cls-2" d="M182.01,12.94c.43.69-1.45,4.97-1.89,5.06-.32.07-2.73-1.26-3.6-1.49-2.33-.62-10.54-1.25-8.08,2.94,2.12,3.61,13.15,1.82,14.38,9.14,1.96,11.68-15.81,11.69-21.93,6.1-.35-.54,2.15-4.66,2.59-4.66,2.29,2.88,14.76,5.29,12.96-.6-.94-3.06-13.13-1.67-14.35-8.73-1.93-11.23,12.91-11.69,19.93-7.75Z"/>
      <path class="cls-2" d="M103.85,4.76v6.84h7.69c-.08.91.37,5.13-.64,5.13h-7.05v13.46c0,.15,1,1.55,1.25,1.74,2.28,1.81,5.52-.69,6.01-.25l1.28,4.68c-3.62,1.99-10.43,3.08-13.18-.69-.28-.38-1.77-3.57-1.77-3.78v-15.17c0-.19-3.77.34-3.85-.25.14-.78-.17-4.71,0-4.88.16-.16,3.17.12,3.85,0v-6.84h6.41Z"/>
      <path class="cls-3" d="M84.19,4.76v6.84h7.69v5.13h-7.69v13.46c0,.15,1,1.55,1.25,1.74,2.28,1.81,5.57-.69,6.02-.25l1.29,4.7c-3.9,2.14-11.6,3.05-13.92-1.68-.26-.53-1.04-2.84-1.04-3.23v-14.74c0-.19-3.77.34-3.85-.25.14-.78-.17-4.71,0-4.88.16-.16,3.17.12,3.85,0v-6.84h6.41Z"/>
      <path class="cls-2" d="M123.08,37.67h-6.41V11.6c1.04.47,6.41-1.12,6.41.21v25.86Z"/>
      <path class="cls-2" d="M118.69.15c6.07-1.37,6.87,7.09,1.52,7.52-4.9.39-5.8-6.55-1.52-7.52Z"/>
    </g>
    <text class="cls-1" transform="translate(1.25 76.64)"><tspan x="0" y="0">Sistema de Gestión Óptica</tspan></text>
  </g>
</svg>